<svg xmlns="http://www.w3.org/2000/svg" fill="none" viewBox="0 0 18 18" class="h-[1.125rem] w-[1.125rem]"><path fill="currentColor" d="M13.779 1.913c1.834 0 3.321 1.563 3.321 3.492v7.19c0 1.929-1.487 3.493-3.321 3.493H4.22C2.387 16.088.9 14.524.9 12.595v-7.19c0-1.929 1.487-3.492 3.321-3.492zM4.22 3.31c-1.1 0-1.992.938-1.992 2.095v7.19c0 1.157.892 2.095 1.992 2.095h2.783V3.31zm4.112 11.38h5.446c1.1 0 1.992-.938 1.992-2.095v-7.19c0-1.157-.892-2.095-1.992-2.095H8.333zM5.413 7.77c.366 0 .664.312.664.698s-.298.699-.665.699H3.896c-.367 0-.664-.313-.664-.699s.297-.698.664-.698zm0-2.682c.366 0 .664.313.664.698 0 .386-.298.699-.665.699H3.896c-.367 0-.664-.313-.664-.699s.297-.698.664-.698z"/></svg>
